# xmcd
#
# Track frame offsets:
#	150
#	13423
#	26684
#	40147
#	53904
#	65516
#	76906
#	90781
#	103466
#	115187
#	126875
#	138706
#	152694
#	164435
#	177064
#	190545
#	209839
#	225845
#	239702
#	252195
#	264661
#	278167
#	290349
#
# Disc length: 4083 seconds
#
# Revision: 1
# Processed by: cddbd v1.5.1PL2 Copyright (c) Steve Scherf et al.
# Submitted via: audiograbber 1.82.02
#
DISCID=480ff117
DTITLE=varoius - Motown Hitsville UK
DYEAR=1900
DGENRE=Rhythmic Soul
TTITLE0=The Supremes - Stop in the Name of love
TTITLE1=Martha Reeves and The Vandellas - Nowhere To Run
TTITLE2=Earl Van Dyke and The Soul Brothers - All For You
TTITLE3=Junior Walker and The All Stars - (I'm A) Road Runner
TTITLE4=The Elgins - Heaven Must Have Sent You
TTITLE5=The Velvelettes - Needle In A Haystack
TTITLE6=The Supremes - There's No Stopping Us Now
TTITLE7=Martha Reeves and The Vandellas - Third Finger, Left Hand
TTITLE8=Four Tops - I'll Turn To Stone
TTITLE9=The Supremes - Going Down For The Third Time
TTITLE10=Martha Reeves and The Vandellas - One Way Out
TTITLE11=R Dean Taylor - Gotta See Jane
TTITLE12=Marv Johnson - I'll Pick A Rose For My Rose
TTITLE13=The Marvelettes - Reachin' For Something I Can't Have
TTITLE14=Maryin Gaye and Tammi Terrell - The Onion Song
TTITLE15=Marvin Gaye - Abraham, Martin and John
TTITLE16=Kiki Dee - My Whole World Ended (The Moment You Left Me)
TTITLE17=Smokey Robinson and The Miracles - The Tears Of A Clown
TTITLE18=Blinky and Edwin Star - Oh How Happy
TTITLE19=Jimmy Ruffin - It's Wonderful (To Be Loved By You)
TTITLE20=Four Tops - A Simple Game
TTITLE21=Edwin Star - Agent Double-O Soul
TTITLE22=Martha Reeves - No One There
EXTD=
EXTT0=
EXTT1=
EXTT2=
EXTT3=
EXTT4=
EXTT5=
EXTT6=
EXTT7=
EXTT8=
EXTT9=
EXTT10=
EXTT11=
EXTT12=
EXTT13=
EXTT14=
EXTT15=
EXTT16=
EXTT17=
EXTT18=
EXTT19=
EXTT20=
EXTT21=
EXTT22=
PLAYORDER=
